<?xml version="1.0" encoding="UTF-8"?>
<!--Generator: Apple Native CoreSVG 362-->
<!DOCTYPE svg
PUBLIC "-//W3C//DTD SVG 1.1//EN"
       "http://www.w3.org/Graphics/SVG/1.1/DTD/svg11.dtd">
<svg version="1.1" xmlns="http://www.w3.org/2000/svg" xmlns:xlink="http://www.w3.org/1999/xlink" viewBox="0 0 19.4607 17.999">
 <g>
  <rect height="17.999" opacity="0" width="19.4607" x="0" y="0"/>
  <path d="M4.22296 14.359L7.03913 14.359C7.3794 14.359 7.60963 14.1267 7.60963 13.7885L7.60963 10.9724C7.60963 10.6446 7.3794 10.404 7.03913 10.404L4.22296 10.404C3.87235 10.404 3.64001 10.6446 3.64001 10.9724L3.64001 13.7885C3.64001 14.1267 3.87235 14.359 4.22296 14.359ZM3.06359 17.999L16.3971 17.999C18.4456 17.999 19.4607 16.9776 19.4607 14.9665L19.4607 3.04922C19.4607 1.03808 18.4456 0.0166814 16.3971 0.0166814L3.06359 0.0166814C1.02753 0.0166814 0 1.03386 0 3.04922L0 14.9665C0 16.9819 1.02753 17.999 3.06359 17.999ZM2.9229 16.418C2.05114 16.418 1.57069 15.9582 1.57069 15.0554L1.57069 5.85362C1.57069 4.95081 2.05114 4.48896 2.9229 4.48896L16.5274 4.48896C17.3907 4.48896 17.8921 4.95081 17.8921 5.85362L17.8921 15.0554C17.8921 15.9582 17.3907 16.418 16.5274 16.418Z" fill="white" fill-opacity="0.85"/>
 </g>
</svg>
