<?xml version="1.0" encoding="UTF-8"?>
<!--Generator: Apple Native CoreSVG 362-->
<!DOCTYPE svg
PUBLIC "-//W3C//DTD SVG 1.1//EN"
       "http://www.w3.org/Graphics/SVG/1.1/DTD/svg11.dtd">
<svg version="1.1" xmlns="http://www.w3.org/2000/svg" xmlns:xlink="http://www.w3.org/1999/xlink" viewBox="0 0 18.7724 19.1609">
 <g>
  <rect height="19.1609" opacity="0" width="18.7724" x="0" y="0"/>
  <path d="M0 5.12808L18.7724 5.12808L18.7724 2.04088C18.7724 0.809761 17.9857 0.00211021 16.8025 0.00211021L1.95959 0.00211021C0.786749 0.00211021 0 0.809761 0 2.04088ZM4.00409 3.78079C3.44777 3.78079 2.99324 3.33662 2.99324 2.79276C2.99324 2.22609 3.44777 1.79437 4.00409 1.79437C4.5376 1.79437 5.00247 2.22609 5.00247 2.79276C5.00247 3.33662 4.5376 3.78079 4.00409 3.78079ZM7.58169 3.78079C7.03572 3.78079 6.57295 3.33662 6.57295 2.79276C6.57295 2.22609 7.03572 1.79437 7.58169 1.79437C8.12766 1.79437 8.58218 2.22609 8.58218 2.79276C8.58218 3.33662 8.12766 3.78079 7.58169 3.78079ZM11.1593 3.78079C10.6133 3.78079 10.1588 3.33662 10.1588 2.79276C10.1588 2.22609 10.6133 1.79437 11.1593 1.79437C11.7135 1.79437 12.168 2.22609 12.168 2.79276C12.168 3.33662 11.7135 3.78079 11.1593 3.78079ZM14.7472 3.78079C14.2013 3.78079 13.7467 3.33662 13.7467 2.79276C13.7467 2.22609 14.2013 1.79437 14.7472 1.79437C15.2932 1.79437 15.7581 2.22609 15.7581 2.79276C15.7581 3.33662 15.2932 3.78079 14.7472 3.78079ZM1.95959 17.4111L16.8025 17.4111C17.9857 17.4111 18.7724 16.5931 18.7724 15.3702L18.7724 6.21229L0 6.21229L0 15.3702C0 16.5931 0.786749 17.4111 1.95959 17.4111ZM3.4334 14.9847C2.87245 14.9847 2.49652 14.617 2.49652 14.0457L2.49652 8.86396C2.49652 8.29267 2.87245 7.92497 3.4334 7.92497L15.3473 7.92497C15.9082 7.92497 16.2841 8.29267 16.2841 8.86396L16.2841 14.0457C16.2841 14.617 15.9082 14.9847 15.3473 14.9847ZM3.83496 13.8984L14.9457 13.8984C15.0916 13.8984 15.1978 13.7818 15.1978 13.6338L15.1978 9.27588C15.1978 9.11751 15.0916 9.00094 14.9457 9.00094L3.83496 9.00094C3.68905 9.00094 3.58072 9.11751 3.58072 9.27588L3.58072 13.6338C3.58072 13.7818 3.68905 13.8984 3.83496 13.8984ZM2.78634 19.1609C3.26287 19.1609 3.57168 18.8439 3.57168 18.3777L3.57168 16.4269L2.00099 16.4269L2.00099 18.3777C2.00099 18.8439 2.32015 19.1609 2.78634 19.1609ZM15.9861 19.1609C16.4523 19.1609 16.7714 18.8439 16.7714 18.3777L16.7714 16.4269L15.1904 16.4269L15.1904 18.3777C15.1904 18.8439 15.5096 19.1609 15.9861 19.1609Z" fill="white" fill-opacity="0.85"/>
 </g>
</svg>
