<?xml version="1.0" encoding="UTF-8"?>
<!--Generator: Apple Native CoreSVG 341-->
<!DOCTYPE svg
PUBLIC "-//W3C//DTD SVG 1.1//EN"
       "http://www.w3.org/Graphics/SVG/1.1/DTD/svg11.dtd">
<svg version="1.1" xmlns="http://www.w3.org/2000/svg" xmlns:xlink="http://www.w3.org/1999/xlink" viewBox="0 0 24.1661 26.0252">
 <g>
  <rect height="26.0252" opacity="0" width="24.1661" x="0" y="0"/>
  <path d="M0 25.2444C0 25.6645 0.341212 26.0057 0.761232 26.0057L23.0436 26.0057C23.4636 26.0057 23.8048 25.6645 23.8048 25.2444C23.8048 24.8244 23.4636 24.4832 23.0436 24.4832L22.3041 24.4832L22.3041 1.36348C22.3041 0.555763 21.7386 0 20.8723 0L2.83086 0C1.97129 0 1.40576 0.555763 1.40576 1.36348L1.40576 24.4832L0.761232 24.4832C0.341212 24.4832 0 24.8244 0 25.2444ZM2.74141 12.2465L2.74141 1.67139C2.74141 1.46328 2.86836 1.32959 3.05088 1.32959L11.2821 1.32959L11.2821 12.2465ZM12.421 12.2465L12.421 1.32959L20.659 1.32959C20.8415 1.32959 20.9685 1.46328 20.9685 1.67139L20.9685 12.2465ZM2.74141 24.4832L2.74141 13.7689L20.9685 13.7689L20.9685 24.4832Z" fill="white" fill-opacity="0.85"/>
 </g>
</svg>
